<svg id="visual" viewBox="0 0 900 600" width="900" height="600" xmlns="http://www.w3.org/2000/svg" xmlns:xlink="http://www.w3.org/1999/xlink" version="1.1"><rect x="0" y="0" width="900" height="600" fill="#001220"></rect><path d="M0 363L21.5 364.7C43 366.3 86 369.7 128.8 361.3C171.7 353 214.3 333 257.2 338C300 343 343 373 385.8 380C428.7 387 471.3 371 514.2 359.2C557 347.3 600 339.7 642.8 339.8C685.7 340 728.3 348 771.2 348C814 348 857 340 878.5 336L900 332L900 601L878.5 601C857 601 814 601 771.2 601C728.3 601 685.7 601 642.8 601C600 601 557 601 514.2 601C471.3 601 428.7 601 385.8 601C343 601 300 601 257.2 601C214.3 601 171.7 601 128.8 601C86 601 43 601 21.5 601L0 601Z" fill="#0a2647"></path><path d="M0 392L21.5 403.2C43 414.3 86 436.7 128.8 446.8C171.7 457 214.3 455 257.2 440.7C300 426.3 343 399.7 385.8 394.7C428.7 389.7 471.3 406.3 514.2 410.3C557 414.3 600 405.7 642.8 403.7C685.7 401.7 728.3 406.3 771.2 418C814 429.7 857 448.3 878.5 457.7L900 467L900 601L878.5 601C857 601 814 601 771.2 601C728.3 601 685.7 601 642.8 601C600 601 557 601 514.2 601C471.3 601 428.7 601 385.8 601C343 601 300 601 257.2 601C214.3 601 171.7 601 128.8 601C86 601 43 601 21.5 601L0 601Z" fill="#173e69"></path><path d="M0 482L21.5 487.3C43 492.7 86 503.3 128.8 500.8C171.7 498.3 214.3 482.7 257.2 474.7C300 466.7 343 466.3 385.8 474C428.7 481.7 471.3 497.3 514.2 494.8C557 492.3 600 471.7 642.8 468.3C685.7 465 728.3 479 771.2 478.2C814 477.3 857 461.7 878.5 453.8L900 446L900 601L878.5 601C857 601 814 601 771.2 601C728.3 601 685.7 601 642.8 601C600 601 557 601 514.2 601C471.3 601 428.7 601 385.8 601C343 601 300 601 257.2 601C214.3 601 171.7 601 128.8 601C86 601 43 601 21.5 601L0 601Z" fill="#23588d"></path><path d="M0 498L21.5 498C43 498 86 498 128.8 505.8C171.7 513.7 214.3 529.3 257.2 532C300 534.7 343 524.3 385.8 525.8C428.7 527.3 471.3 540.7 514.2 540.2C557 539.7 600 525.3 642.8 516C685.7 506.7 728.3 502.3 771.2 499.2C814 496 857 494 878.5 493L900 492L900 601L878.5 601C857 601 814 601 771.2 601C728.3 601 685.7 601 642.8 601C600 601 557 601 514.2 601C471.3 601 428.7 601 385.8 601C343 601 300 601 257.2 601C214.3 601 171.7 601 128.8 601C86 601 43 601 21.5 601L0 601Z" fill="#2c74b3"></path></svg>